<svg width="256" height="256" viewBox="0 0 256 256" fill="none" xmlns="http://www.w3.org/2000/svg">
  <rect width="256" height="256" rx="28" fill="#D8CFBD"/>

  <!-- shadow -->
  <rect x="40" y="64" width="176" height="132" rx="14" fill="#000000" opacity="0.08"/>

  <!-- printer body -->
  <rect x="36" y="56" width="176" height="132" rx="14" fill="#C9BDA7"/>
  <rect x="36" y="56" width="176" height="24" rx="14" fill="#B9AC93"/>
  <rect x="48" y="88" width="152" height="52" rx="8" fill="#8C9787"/>

  <!-- screen glow -->
  <rect x="56" y="96" width="136" height="36" rx="4" fill="#A8B39F"/>
  <rect x="60" y="100" width="128" height="28" rx="3" fill="#BBC7B2"/>

  <!-- old buttons -->
  <circle cx="58" cy="69" r="4" fill="#7B7A6D"/>
  <circle cx="74" cy="69" r="4" fill="#7B7A6D"/>
  <rect x="162" y="64" width="26" height="10" rx="2" fill="#8B816F"/>

  <!-- label slot -->
  <rect x="56" y="148" width="136" height="12" rx="4" fill="#726A5D"/>

  <!-- label -->
  <path d="M70 154H186V196C186 202.627 180.627 208 174 208H82C75.3726 208 70 202.627 70 196V154Z" fill="#F6F1E6"/>
  <circle cx="92" cy="181" r="10" fill="#D7D0C3"/>
  <circle cx="92" cy="181" r="3" fill="#8C8578"/>

  <!-- text on label -->
  <rect x="110" y="170" width="54" height="8" rx="2" fill="#3B3A36"/>
  <rect x="110" y="184" width="40" height="6" rx="2" fill="#6A675F"/>

  <!-- perforation / cutter cue -->
  <path d="M186 175H202" stroke="#8A8478" stroke-width="4" stroke-linecap="round" stroke-dasharray="4 6"/>

  <!-- tiny retro badge -->
  <rect x="52" y="42" width="64" height="18" rx="4" fill="#9C8D74"/>
  <text x="84" y="55" text-anchor="middle" font-family="Helvetica, Arial, sans-serif" font-size="9" font-weight="700" fill="#F4EEDD">LABEL</text>
</svg>